<mxfile host="app.diagrams.net" modified="2023-06-19T09:01:31.396Z" agent="Mozilla/5.0 (Windows NT 10.0; Win64; x64) AppleWebKit/537.36 (KHTML, like Gecko) Chrome/114.0.0.0 Safari/537.36" etag="yHv-Bh7YyZq-1TRmIeLh" version="21.5.0" type="github">
  <diagram name="PÃ¡gina-1" id="2UN17sKaFhHNQWkZbPPd">
    <mxGraphModel dx="2266" dy="861" grid="1" gridSize="10" guides="1" tooltips="1" connect="1" arrows="1" fold="1" page="1" pageScale="1" pageWidth="827" pageHeight="1169" math="0" shadow="0">
      <root>
        <mxCell id="0" />
        <mxCell id="1" parent="0" />
        <mxCell id="wBCdEnZp3XqF9Xz21YHT-3" value="" style="verticalLabelPosition=bottom;html=1;verticalAlign=top;align=center;shape=mxgraph.floorplan.wall;fillColor=strokeColor;rotation=-30;" vertex="1" parent="1">
          <mxGeometry x="79" y="530" width="360" height="10" as="geometry" />
        </mxCell>
        <mxCell id="wBCdEnZp3XqF9Xz21YHT-4" value="" style="verticalLabelPosition=bottom;html=1;verticalAlign=top;align=center;shape=mxgraph.floorplan.wall;fillColor=strokeColor;rotation=-150;" vertex="1" parent="1">
          <mxGeometry x="388" y="530" width="360" height="10" as="geometry" />
        </mxCell>
        <mxCell id="wBCdEnZp3XqF9Xz21YHT-5" value="" style="verticalLabelPosition=bottom;html=1;verticalAlign=top;align=center;shape=mxgraph.floorplan.wall;fillColor=strokeColor;rotation=-150;" vertex="1" parent="1">
          <mxGeometry x="81" y="707" width="360" height="10" as="geometry" />
        </mxCell>
        <mxCell id="wBCdEnZp3XqF9Xz21YHT-6" value="" style="verticalLabelPosition=bottom;html=1;verticalAlign=top;align=center;shape=mxgraph.floorplan.wall;fillColor=strokeColor;rotation=-30;" vertex="1" parent="1">
          <mxGeometry x="388" y="707" width="360" height="10" as="geometry" />
        </mxCell>
        <mxCell id="wBCdEnZp3XqF9Xz21YHT-7" value="" style="verticalLabelPosition=bottom;html=1;verticalAlign=top;align=center;shape=mxgraph.floorplan.wall;fillColor=strokeColor;direction=south;" vertex="1" parent="1">
          <mxGeometry x="102" y="340" width="10" height="284" as="geometry" />
        </mxCell>
        <mxCell id="wBCdEnZp3XqF9Xz21YHT-8" value="" style="verticalLabelPosition=bottom;html=1;verticalAlign=top;align=center;shape=mxgraph.floorplan.wall;fillColor=strokeColor;rotation=-30;" vertex="1" parent="1">
          <mxGeometry x="81" y="250" width="360" height="10" as="geometry" />
        </mxCell>
        <mxCell id="wBCdEnZp3XqF9Xz21YHT-9" value="" style="verticalLabelPosition=bottom;html=1;verticalAlign=top;align=center;shape=mxgraph.floorplan.wall;fillColor=strokeColor;direction=south;" vertex="1" parent="1">
          <mxGeometry x="408" y="164" width="10" height="284" as="geometry" />
        </mxCell>
        <mxCell id="wBCdEnZp3XqF9Xz21YHT-10" value="" style="verticalLabelPosition=bottom;html=1;verticalAlign=top;align=center;shape=mxgraph.floorplan.wall;fillColor=strokeColor;direction=south;" vertex="1" parent="1">
          <mxGeometry x="716" y="342" width="10" height="284" as="geometry" />
        </mxCell>
        <mxCell id="wBCdEnZp3XqF9Xz21YHT-11" value="" style="verticalLabelPosition=bottom;html=1;verticalAlign=top;align=center;shape=mxgraph.floorplan.wall;fillColor=strokeColor;rotation=-150;" vertex="1" parent="1">
          <mxGeometry x="388" y="250" width="360" height="10" as="geometry" />
        </mxCell>
      </root>
    </mxGraphModel>
  </diagram>
</mxfile>
